<svg xmlns="http://www.w3.org/2000/svg" viewBox="0 0 32 32" role="img" aria-label="gavel">
  <title>gavel</title>
  <g fill="currentColor">
    <rect x="5" y="27" width="22" height="2.5" rx="1.25"/>
    <rect x="7" y="23.5" width="18" height="2.5" rx="1.25"/>
    <rect x="9" y="20" width="14" height="2.5" rx="1.25"/>
    <g transform="translate(14.5, 11) rotate(20)">
      <rect x="-6.5" y="-7.5" width="6" height="1.5" rx="0.75"/>
      <rect x="-7.5" y="-5.5" width="8" height="1" rx="0.5"/>
      <rect x="-7" y="-4" width="7" height="8" rx="1"/>
      <rect x="-7.5" y="4.5" width="8" height="1" rx="0.5"/>
      <rect x="-6.5" y="6" width="6" height="1.5" rx="0.75"/>
      <rect x="0.5" y="-1.5" width="1.5" height="3" rx="0.5"/>
      <path d="M 2.5 -1 L 15 -1.5 L 15 1.5 L 2.5 1 Z"/>
      <rect x="15.5" y="-2" width="2.5" height="4" rx="1.25"/>
    </g>
  </g>
</svg>
